<?xml version="1.0" standalone="no"?>
<!DOCTYPE svg PUBLIC "-//W3C//DTD SVG 20010904//EN"
 "http://www.w3.org/TR/2001/REC-SVG-20010904/DTD/svg10.dtd">
<svg version="1.0" xmlns="http://www.w3.org/2000/svg"
 width="1024.000000pt" height="1024.000000pt" viewBox="0 0 1024.000000 1024.000000"
 preserveAspectRatio="xMidYMid meet">
<metadata>
Created by potrace 1.11, written by Peter Selinger 2001-2013
</metadata>
<g transform="translate(0.000000,1024.000000) scale(0.100000,-0.100000)"
fill="#000000" stroke="none">
<path d="M4855 10233 c-895 -52 -1709 -308 -2450 -771 -922 -576 -1649 -1448
-2048 -2457 -168 -424 -282 -892 -334 -1365 -25 -234 -25 -806 0 -1040 179
-1635 1080 -3044 2487 -3887 163 -97 547 -286 725 -356 1339 -525 2828 -470
4110 152 2059 998 3206 3226 2819 5476 -214 1243 -868 2349 -1860 3141 -911
728 -2055 1124 -3219 1112 -99 -1 -202 -3 -230 -5z m-2130 -3302 c105 -28 264
-108 344 -174 36 -28 66 -57 68 -64 3 -9 -268 -323 -286 -331 -4 -1 -30 16
-59 37 -93 70 -148 86 -298 86 l-130 0 -76 -38 c-129 -63 -222 -185 -265 -347
-24 -89 -24 -318 0 -413 25 -100 64 -175 124 -238 59 -63 127 -101 223 -125
79 -20 230 -22 285 -3 l40 14 3 142 3 142 -153 3 -153 3 0 220 0 220 395 0
395 0 3 -487 2 -486 -49 -36 c-124 -91 -311 -169 -486 -202 -130 -24 -354 -15
-487 19 -105 28 -238 86 -315 138 -70 47 -178 154 -229 226 -186 259 -237 692
-122 1043 116 358 420 607 816 670 95 15 316 5 407 -19z m3732 14 c106 -20
205 -54 301 -105 97 -50 217 -146 204 -163 -52 -69 -265 -327 -269 -327 -4 0
-27 13 -52 29 -113 73 -234 111 -351 111 -98 0 -146 -14 -187 -55 -27 -27 -33
-40 -33 -78 0 -81 30 -100 367 -230 122 -48 244 -97 270 -111 75 -37 168 -112
206 -164 83 -113 112 -208 111 -362 0 -127 -30 -227 -99 -331 -139 -209 -384
-319 -707 -319 -199 0 -370 41 -548 130 -85 43 -218 134 -226 155 -4 11 202
270 285 358 17 17 20 16 87 -29 82 -56 163 -94 261 -124 60 -18 91 -21 175
-18 156 5 208 40 208 139 0 70 -42 100 -270 193 -309 125 -408 175 -486 248
-81 75 -135 155 -166 246 -18 55 -23 88 -23 182 0 140 22 214 97 327 103 153
293 267 506 303 80 13 256 11 339 -5z m1641 -817 l2 -798 390 0 390 0 0 -230
0 -230 -665 0 -665 0 0 1030 0 1030 273 -2 272 -3 3 -797z m-3768 -3 l0 -795
390 0 390 0 0 -230 0 -230 -665 0 -665 0 0 1025 0 1025 275 0 275 0 0 -795z
m-2257 -2012 c26 -10 62 -29 80 -44 l32 -26 -27 -39 c-15 -22 -40 -54 -56 -73
l-28 -34 -41 22 c-95 48 -196 9 -244 -94 -28 -60 -26 -175 5 -241 31 -68 74
-97 147 -102 48 -4 65 0 108 23 28 16 53 26 54 24 2 -2 25 -37 50 -76 l47 -73
-39 -25 c-188 -125 -453 -84 -570 89 -114 169 -95 429 41 566 114 114 292 156
441 103z m1236 -15 c48 -25 73 -45 97 -80 54 -80 64 -149 64 -452 l0 -266
-100 0 -99 0 -11 40 c-7 28 -15 38 -23 33 -7 -4 -30 -19 -52 -34 -192 -129
-425 -28 -425 185 0 134 81 216 261 266 40 11 101 23 136 26 70 7 77 18 48 73
-37 72 -185 65 -325 -16 -4 -2 -25 32 -48 76 l-42 79 33 21 c19 11 65 32 102
46 145 55 280 56 384 3z m1391 31 c74 -17 114 -50 152 -126 l33 -68 3 -317 3
-318 -125 0 -125 0 -3 291 -3 291 -29 25 c-42 36 -108 29 -170 -18 l-45 -34
-1 -277 0 -278 -125 0 -125 0 2 408 3 407 100 0 100 0 10 -52 10 -51 35 30
c62 53 163 96 225 97 17 0 50 -4 75 -10z m2666 -18 c93 -41 152 -122 173 -236
6 -33 11 -173 11 -317 l0 -258 -104 0 -103 0 -7 40 c-7 45 -11 48 -40 21 -12
-11 -45 -32 -75 -47 -117 -58 -252 -38 -325 48 -66 76 -76 219 -22 297 53 76
164 128 331 155 47 7 89 16 93 20 11 12 -31 79 -58 94 -53 28 -170 5 -282 -56
-7 -3 -88 139 -88 155 0 16 149 80 226 97 92 21 206 15 270 -13z m1295 0 c30
-12 73 -34 97 -49 l42 -29 -51 -69 c-29 -38 -53 -70 -54 -72 -2 -2 -30 11 -63
28 -74 38 -160 42 -192 10 -46 -46 -15 -79 118 -130 168 -65 231 -122 248
-228 9 -55 -18 -139 -60 -188 -71 -83 -242 -126 -377 -94 -63 15 -164 59 -197
86 l-23 19 52 73 c29 39 56 72 60 72 5 0 29 -13 55 -30 110 -69 257 -62 257
14 0 41 -27 62 -130 102 -116 45 -178 85 -218 142 -27 39 -30 52 -30 116 0 63
4 79 30 122 35 56 100 101 177 120 69 18 190 10 259 -15z m-2929 -26 c5 -16
44 -160 87 -320 68 -251 79 -285 86 -255 7 35 122 456 151 558 l15 52 115 0
c76 0 114 -4 114 -11 0 -6 -59 -191 -131 -410 l-130 -399 -143 0 -144 0 -131
387 c-72 213 -134 397 -137 410 l-6 24 123 -3 123 -3 8 -30z"/>
<path d="M3142 3664 c-103 -27 -146 -63 -146 -121 0 -26 7 -41 24 -55 36 -29
116 -21 164 16 36 27 36 28 36 102 0 83 3 80 -78 58z"/>
<path d="M7245 3670 c-102 -21 -175 -73 -175 -126 0 -14 11 -36 25 -49 35 -36
97 -34 158 5 l47 30 0 75 c0 41 -3 75 -7 74 -5 -1 -26 -5 -48 -9z"/>
</g>
</svg>
